<svg width="490" height="234" viewBox="0 0 490 234" fill="none" xmlns="http://www.w3.org/2000/svg">
<path d="M14.192 201.657C13.802 193.467 12.762 179.947 11.982 171.757C10.682 159.277 10.812 154.987 12.502 145.627C15.882 126.127 26.412 108.967 42.662 96.3566C53.452 88.0366 56.702 82.8366 55.792 76.2066C52.412 53.3266 52.152 49.2966 53.452 40.3266C55.272 28.1066 60.342 17.9666 67.102 13.0266C76.592 6.1366 82.702 5.0966 114.162 4.5766C129.892 4.4466 146.922 3.6666 151.862 3.0166C156.932 2.2366 183.452 1.84659 211.012 1.97659C276.532 2.36659 308.772 5.2266 366.362 15.2366C417.322 24.2066 422.392 25.6366 438.902 36.5566C460.222 50.4666 477.382 77.8966 483.492 107.927C487.782 128.987 489.212 168.767 486.092 184.757C482.452 203.867 475.302 214.917 462.302 221.677C456.192 224.797 451.512 224.277 438.122 219.207C421.482 212.837 420.052 211.927 416.802 206.207C414.332 201.657 413.942 198.667 413.552 181.507C413.162 163.177 413.422 161.357 416.802 151.217C421.092 138.087 421.222 132.107 417.452 114.557C414.722 102.207 413.942 100.387 409.132 95.4466C404.192 90.2466 403.412 89.8566 396.912 89.8566C390.672 89.8566 389.632 90.2466 385.602 94.6666L381.052 99.4766L382.092 109.227C384.172 127.557 383.262 146.407 379.362 162.657C377.412 170.847 375.332 183.847 374.812 191.517C374.032 203.087 373.252 206.857 370.132 212.967C365.062 223.107 360.902 225.707 347.252 227.007C332.302 228.307 328.272 228.047 321.902 224.927C307.472 217.907 302.792 201.267 308.382 177.607C320.472 127.037 322.032 114.427 317.742 102.207C315.792 96.7466 313.322 92.7166 309.292 88.8166C301.362 81.4066 297.072 81.4066 289.662 88.8166C284.462 94.1466 284.072 95.0566 281.472 109.357C279.782 118.587 278.482 132.497 277.962 145.757C277.702 157.587 276.792 171.237 276.012 176.307C274.192 188.917 264.702 217.777 260.932 222.327C253.002 231.817 229.862 235.587 218.032 229.347C210.102 225.187 204.902 220.377 200.872 213.487C197.492 207.767 197.362 206.857 197.492 189.957C197.622 175.657 198.272 169.937 201.132 158.757C202.952 151.217 205.942 138.347 207.762 130.157C209.452 121.967 211.792 112.347 212.962 108.837C214.002 105.327 214.912 99.6066 214.912 96.0966C214.912 90.2466 214.392 89.0766 208.672 83.0966C202.822 76.9866 201.782 76.4666 195.022 75.8166C188.002 75.2966 187.742 75.2966 181.502 81.1466C177.082 85.3066 174.352 89.4666 172.012 95.3166C167.852 105.847 160.312 113.777 152.512 115.857C145.492 117.807 138.342 116.637 118.972 110.397C107.532 106.627 104.802 106.237 88.812 106.237L71.262 106.107L63.072 110.527C52.932 115.987 42.142 127.687 36.552 138.867C31.482 149.267 34.342 169.287 36.552 201.657M227.912 23.5566C252.612 24.3366 278.352 25.3766 285.112 26.1566C291.872 26.8066 306.822 28.3666 318.262 29.4066C329.702 30.4466 342.572 31.8766 346.862 32.6566C351.152 33.3066 360.772 34.4766 368.312 35.3866C394.312 38.2466 417.192 42.7966 424.472 46.4366C439.162 53.8466 458.662 78.2866 465.162 97.2666C472.312 118.197 475.692 160.187 471.662 179.557C467.892 197.887 462.432 205.557 452.682 205.557C446.832 205.557 440.332 200.747 437.732 194.247C434.742 187.357 435.392 164.997 438.772 154.857C442.672 142.637 442.282 127.167 437.212 104.677C435.132 95.0566 432.532 85.5666 431.492 83.6166C426.552 74.1266 415.632 68.9266 398.862 68.0166C383.262 67.2366 373.512 69.9666 366.882 76.8566C359.732 84.2666 358.952 89.7266 360.642 114.947L362.072 136.007L357.392 158.887C354.792 171.367 352.712 184.887 352.712 188.917C352.712 195.547 352.322 196.457 348.162 200.227C342.182 205.427 338.672 205.297 333.082 199.577C329.312 195.677 328.662 194.247 328.922 189.567C329.052 186.577 330.092 181.507 331.262 178.387C334.252 169.937 340.622 136.397 341.662 124.307C343.482 101.817 337.892 83.8766 325.022 71.0066C319.432 65.5466 316.312 63.5966 310.462 61.7766C294.342 57.0966 277.442 61.7766 270.032 72.9566C261.712 85.4366 256.902 110.397 255.212 149.657C253.912 179.427 250.012 196.847 243.252 203.867C239.742 207.507 238.182 208.157 233.112 208.157C228.172 208.157 226.482 207.507 223.752 204.517C219.332 199.837 217.512 196.067 217.512 191.907C217.512 188.787 226.872 145.627 232.592 122.357C237.922 100.777 238.572 95.9666 236.882 88.5566C232.852 69.7066 221.802 58.1366 204.122 54.1066C192.812 51.5066 185.402 52.2866 175.002 57.2266C166.292 61.3866 159.922 68.1466 155.762 77.5066C152.512 84.7866 143.542 93.7566 139.512 93.7566C138.082 93.7566 130.282 91.8066 122.222 89.3366C114.292 86.8666 104.152 84.5266 99.862 84.0066C95.572 83.4866 90.502 82.1866 88.422 81.1466C79.582 76.7266 73.732 61.9066 74.772 46.6966C75.292 39.9366 75.942 38.5066 80.362 33.9566C83.092 31.0966 87.252 28.2366 89.332 27.5866C91.542 26.9366 104.542 26.0266 118.062 25.5066C131.712 25.1166 148.352 24.2066 155.112 23.6866C173.572 22.2566 179.032 22.2566 227.912 23.5566Z" stroke="white" stroke-width="2.5" stroke-linecap="round"/>
<path d="M7.95898 213.51C7.27539 213.51 6.66341 213.633 6.12305 213.881C5.58919 214.128 5.13672 214.486 4.76562 214.955C4.39453 215.417 4.11133 215.98 3.91602 216.645C3.7207 217.302 3.62305 218.044 3.62305 218.871C3.62305 219.978 3.7793 220.932 4.0918 221.732C4.4043 222.527 4.87956 223.139 5.51758 223.568C6.1556 223.992 6.96289 224.203 7.93945 224.203C8.54492 224.203 9.13411 224.145 9.70703 224.027C10.2799 223.91 10.8724 223.751 11.4844 223.549V225.541C10.9049 225.769 10.319 225.935 9.72656 226.039C9.13411 226.143 8.45052 226.195 7.67578 226.195C6.21745 226.195 5.00651 225.893 4.04297 225.287C3.08594 224.682 2.36979 223.829 1.89453 222.729C1.42578 221.628 1.19141 220.339 1.19141 218.861C1.19141 217.781 1.34115 216.791 1.64062 215.893C1.9401 214.994 2.3763 214.219 2.94922 213.568C3.52214 212.911 4.22852 212.406 5.06836 212.055C5.91471 211.697 6.88151 211.518 7.96875 211.518C8.6849 211.518 9.38802 211.599 10.0781 211.762C10.7747 211.918 11.4193 212.143 12.0117 212.436L11.1914 214.369C10.6966 214.135 10.179 213.933 9.63867 213.764C9.09831 213.594 8.53841 213.51 7.95898 213.51ZM22.4805 216.996H18.9258V226H16.6406V216.996H13.1055V215.189H22.4805V216.996ZM28.8086 214.984C30.1758 214.984 31.2077 215.287 31.9043 215.893C32.6074 216.498 32.959 217.442 32.959 218.725V226H31.3281L30.8887 224.467H30.8105C30.5046 224.857 30.1888 225.18 29.8633 225.434C29.5378 225.688 29.1602 225.876 28.7305 226C28.3073 226.13 27.7897 226.195 27.1777 226.195C26.5332 226.195 25.957 226.078 25.4492 225.844C24.9414 225.603 24.541 225.238 24.248 224.75C23.9551 224.262 23.8086 223.643 23.8086 222.895C23.8086 221.781 24.222 220.945 25.0488 220.385C25.8822 219.825 27.1387 219.516 28.8184 219.457L30.6934 219.389V218.822C30.6934 218.074 30.5176 217.54 30.166 217.221C29.821 216.902 29.3327 216.742 28.7012 216.742C28.1608 216.742 27.6367 216.82 27.1289 216.977C26.6211 217.133 26.1263 217.325 25.6445 217.553L24.9023 215.932C25.4297 215.652 26.0286 215.424 26.6992 215.248C27.3763 215.072 28.0794 214.984 28.8086 214.984ZM30.6836 220.834L29.2871 220.883C28.1413 220.922 27.3372 221.117 26.875 221.469C26.4128 221.82 26.1816 222.302 26.1816 222.914C26.1816 223.448 26.3411 223.839 26.6602 224.086C26.9792 224.327 27.3991 224.447 27.9199 224.447C28.7142 224.447 29.3717 224.223 29.8926 223.773C30.4199 223.318 30.6836 222.65 30.6836 221.771V220.834ZM41.7188 214.984C43.0013 214.984 44.0299 215.453 44.8047 216.391C45.5859 217.328 45.9766 218.721 45.9766 220.57C45.9766 221.794 45.7943 222.826 45.4297 223.666C45.0716 224.499 44.5671 225.131 43.916 225.561C43.2715 225.984 42.5195 226.195 41.6602 226.195C41.1133 226.195 40.638 226.124 40.2344 225.98C39.8307 225.837 39.4857 225.652 39.1992 225.424C38.9128 225.189 38.6719 224.936 38.4766 224.662H38.3398C38.3724 224.923 38.4017 225.212 38.4277 225.531C38.4603 225.844 38.4766 226.13 38.4766 226.391V230.795H36.1719V215.189H38.0469L38.3691 216.684H38.4766C38.6784 216.378 38.9225 216.094 39.209 215.834C39.502 215.574 39.8535 215.368 40.2637 215.219C40.6803 215.062 41.1654 214.984 41.7188 214.984ZM41.1035 216.859C40.472 216.859 39.9642 216.986 39.5801 217.24C39.2025 217.488 38.9258 217.862 38.75 218.363C38.5807 218.865 38.4896 219.493 38.4766 220.248V220.57C38.4766 221.371 38.5579 222.051 38.7207 222.611C38.89 223.165 39.1667 223.588 39.5508 223.881C39.9414 224.167 40.4688 224.311 41.1328 224.311C41.6927 224.311 42.1549 224.158 42.5195 223.852C42.8906 223.546 43.1673 223.109 43.3496 222.543C43.5319 221.977 43.623 221.309 43.623 220.541C43.623 219.376 43.4147 218.471 42.998 217.826C42.5879 217.182 41.9564 216.859 41.1035 216.859ZM56.7969 216.996H53.2422V226H50.957V216.996H47.4219V215.189H56.7969V216.996Z" fill="white"/>
</svg>
