<svg width="481" height="234" viewBox="0 0 481 234" fill="none" xmlns="http://www.w3.org/2000/svg">
<path d="M5.192 201.657C4.802 193.467 3.762 179.947 2.982 171.757C1.682 159.277 1.812 154.987 3.502 145.627C6.882 126.127 17.412 108.967 33.662 96.3566C44.452 88.0366 47.702 82.8366 46.792 76.2066C43.412 53.3266 43.152 49.2966 44.452 40.3266C46.272 28.1066 51.342 17.9666 58.102 13.0266C67.592 6.1366 73.702 5.0966 105.162 4.5766C120.892 4.4466 137.922 3.6666 142.862 3.0166C147.932 2.2366 174.452 1.84659 202.012 1.97659C267.532 2.36659 299.772 5.2266 357.362 15.2366C408.322 24.2066 413.392 25.6366 429.902 36.5566C451.222 50.4666 468.382 77.8966 474.492 107.927C478.782 128.987 480.212 168.767 477.092 184.757C473.452 203.867 466.302 214.917 453.302 221.677C447.192 224.797 442.512 224.277 429.122 219.207C412.482 212.837 411.052 211.927 407.802 206.207C405.332 201.657 404.942 198.667 404.552 181.507C404.162 163.177 404.422 161.357 407.802 151.217C412.092 138.087 412.222 132.107 408.452 114.557C405.722 102.207 404.942 100.387 400.132 95.4466C395.192 90.2466 394.412 89.8566 387.912 89.8566C381.672 89.8566 380.632 90.2466 376.602 94.6666L372.052 99.4766L373.092 109.227C375.172 127.557 374.262 146.407 370.362 162.657C368.412 170.847 366.332 183.847 365.812 191.517C365.032 203.087 364.252 206.857 361.132 212.967C356.062 223.107 351.902 225.707 338.252 227.007C323.302 228.307 319.272 228.047 312.902 224.927C298.472 217.907 293.792 201.267 299.382 177.607C311.472 127.037 313.032 114.427 308.742 102.207C306.792 96.7466 304.322 92.7166 300.292 88.8166C292.362 81.4066 288.072 81.4066 280.662 88.8166C275.462 94.1466 275.072 95.0566 272.472 109.357C270.782 118.587 269.482 132.497 268.962 145.757C268.702 157.587 267.792 171.237 267.012 176.307C265.192 188.917 255.702 217.777 251.932 222.327C244.002 231.817 220.862 235.587 209.032 229.347C201.102 225.187 195.902 220.377 191.872 213.487C188.492 207.767 188.362 206.857 188.492 189.957C188.622 175.657 189.272 169.937 192.132 158.757C193.952 151.217 196.942 138.347 198.762 130.157C200.452 121.967 202.792 112.347 203.962 108.837C205.002 105.327 205.912 99.6066 205.912 96.0966C205.912 90.2466 205.392 89.0766 199.672 83.0966C193.822 76.9866 192.782 76.4666 186.022 75.8166C179.002 75.2966 178.742 75.2966 172.502 81.1466C168.082 85.3066 165.352 89.4666 163.012 95.3166C158.852 105.847 151.312 113.777 143.512 115.857C136.492 117.807 129.342 116.637 109.972 110.397C98.532 106.627 95.802 106.237 79.812 106.237L62.262 106.107L54.072 110.527C43.932 115.987 33.142 127.687 27.552 138.867C22.482 149.267 25.342 169.287 27.552 201.657M218.912 23.5566C243.612 24.3366 269.352 25.3766 276.112 26.1566C282.872 26.8066 297.822 28.3666 309.262 29.4066C320.702 30.4466 333.572 31.8766 337.862 32.6566C342.152 33.3066 351.772 34.4766 359.312 35.3866C385.312 38.2466 408.192 42.7966 415.472 46.4366C430.162 53.8466 449.662 78.2866 456.162 97.2666C463.312 118.197 466.692 160.187 462.662 179.557C458.892 197.887 453.432 205.557 443.682 205.557C437.832 205.557 431.332 200.747 428.732 194.247C425.742 187.357 426.392 164.997 429.772 154.857C433.672 142.637 433.282 127.167 428.212 104.677C426.132 95.0566 423.532 85.5666 422.492 83.6166C417.552 74.1266 406.632 68.9266 389.862 68.0166C374.262 67.2366 364.512 69.9666 357.882 76.8566C350.732 84.2666 349.952 89.7266 351.642 114.947L353.072 136.007L348.392 158.887C345.792 171.367 343.712 184.887 343.712 188.917C343.712 195.547 343.322 196.457 339.162 200.227C333.182 205.427 329.672 205.297 324.082 199.577C320.312 195.677 319.662 194.247 319.922 189.567C320.052 186.577 321.092 181.507 322.262 178.387C325.252 169.937 331.622 136.397 332.662 124.307C334.482 101.817 328.892 83.8766 316.022 71.0066C310.432 65.5466 307.312 63.5966 301.462 61.7766C285.342 57.0966 268.442 61.7766 261.032 72.9566C252.712 85.4366 247.902 110.397 246.212 149.657C244.912 179.427 241.012 196.847 234.252 203.867C230.742 207.507 229.182 208.157 224.112 208.157C219.172 208.157 217.482 207.507 214.752 204.517C210.332 199.837 208.512 196.067 208.512 191.907C208.512 188.787 217.872 145.627 223.592 122.357C228.922 100.777 229.572 95.9666 227.882 88.5566C223.852 69.7066 212.802 58.1366 195.122 54.1066C183.812 51.5066 176.402 52.2866 166.002 57.2266C157.292 61.3866 150.922 68.1466 146.762 77.5066C143.512 84.7866 134.542 93.7566 130.512 93.7566C129.082 93.7566 121.282 91.8066 113.222 89.3366C105.292 86.8666 95.152 84.5266 90.862 84.0066C86.572 83.4866 81.502 82.1866 79.422 81.1466C70.582 76.7266 64.732 61.9066 65.772 46.6966C66.292 39.9366 66.942 38.5066 71.362 33.9566C74.092 31.0966 78.252 28.2366 80.332 27.5866C82.542 26.9366 95.542 26.0266 109.062 25.5066C122.712 25.1166 139.352 24.2066 146.112 23.6866C164.572 22.2566 170.032 22.2566 218.912 23.5566Z" stroke="white" stroke-width="2.5" stroke-linecap="round"/>
</svg>
